{
	"asset":{
		"generator":"Khronos glTF Blender I/O v3.6.27",
		"version":"2.0"
	},
	"extensionsUsed":[
		"KHR_materials_specular",
		"KHR_materials_ior",
		"KHR_materials_emissive_strength"
	],
	"scene":0,
	"scenes":[
		{
			"name":"Scene",
			"nodes":[
				0,
				1,
				2,
				3,
				4,
				5
			]
		}
	],
	"nodes":[
		{
			"mesh":0,
			"name":"KB_Base",
			"scale":[
				3.510467290878296,
				3.510467290878296,
				3.510467290878296
			]
		},
		{
			"mesh":1,
			"name":"Knob",
			"scale":[
				3.510467290878296,
				3.510467290878296,
				3.510467290878296
			]
		},
		{
			"mesh":2,
			"name":"Backlight"
		},
		{
			"mesh":3,
			"name":"KeyLight",
			"scale":[
				3.510467052459717,
				3.510467290878296,
				3.510467290878296
			]
		},
		{
			"mesh":4,
			"name":"KeyOrange",
			"scale":[
				3.510467052459717,
				3.510467290878296,
				3.510467290878296
			]
		},
		{
			"mesh":5,
			"name":"KeyDark",
			"scale":[
				3.510467052459717,
				3.510467290878296,
				3.510467290878296
			]
		}
	],
	"materials":[
		{
			"doubleSided":true,
			"extensions":{
				"KHR_materials_specular":{
					"specularColorFactor":[
						2.371357614441398,
						2.371357614441398,
						2.371357614441398
					]
				},
				"KHR_materials_ior":{
					"ior":1.4500000476837158
				}
			},
			"name":"Black Metal",
			"pbrMetallicRoughness":{
				"baseColorFactor":[
					0,
					0,
					0,
					1
				],
				"roughnessFactor":0.18285715579986572
			}
		},
		{
			"doubleSided":true,
			"extensions":{
				"KHR_materials_specular":{
					"specularColorFactor":[
						2.371357614441398,
						2.371357614441398,
						2.371357614441398
					]
				},
				"KHR_materials_ior":{
					"ior":1.4500000476837158
				}
			},
			"name":"Material.001Gold",
			"pbrMetallicRoughness":{
				"baseColorFactor":[
					0.8000000715255737,
					0.31869935989379883,
					0.027683887630701065,
					1
				],
				"metallicFactor":0.9200000166893005,
				"roughnessFactor":0.17714285850524902
			}
		},
		{
			"doubleSided":true,
			"emissiveFactor":[
				0,
				0.033848658204078674,
				1
			],
			"extensions":{
				"KHR_materials_emissive_strength":{
					"emissiveStrength":35.39999771118164
				},
				"KHR_materials_specular":{
					"specularColorFactor":[
						0,
						0,
						0
					]
				},
				"KHR_materials_ior":{
					"ior":1.4500000476837158
				}
			},
			"name":"Backlight",
			"pbrMetallicRoughness":{
				"baseColorFactor":[
					0.3586236536502838,
					1,
					0.6251204609870911,
					1
				],
				"metallicFactor":0,
				"roughnessFactor":0
			}
		},
		{
			"doubleSided":true,
			"extensions":{
				"KHR_materials_specular":{
					"specularColorFactor":[
						0.4878221370202651,
						0.4878221370202651,
						0.4878221370202651
					]
				},
				"KHR_materials_ior":{
					"ior":1.4500000476837158
				}
			},
			"name":"DarkBlue",
			"pbrMetallicRoughness":{
				"baseColorFactor":[
					0,
					0.020961418747901917,
					0.039376400411129,
					1
				],
				"metallicFactor":0,
				"roughnessFactor":0.522857129573822
			}
		},
		{
			"doubleSided":true,
			"name":"Orange",
			"pbrMetallicRoughness":{
				"baseColorFactor":[
					0.4188418984413147,
					0.14172519743442535,
					0,
					1
				],
				"metallicFactor":0,
				"roughnessFactor":0.5
			}
		},
		{
			"doubleSided":true,
			"extensions":{
				"KHR_materials_specular":{
					"specularColorFactor":[
						0.4878221370202651,
						0.4878221370202651,
						0.4878221370202651
					]
				},
				"KHR_materials_ior":{
					"ior":1.4500000476837158
				}
			},
			"name":"DarkBlue.001",
			"pbrMetallicRoughness":{
				"baseColorFactor":[
					0,
					0.006665249355137348,
					0.01718028448522091,
					1
				],
				"metallicFactor":0,
				"roughnessFactor":0.522857129573822
			}
		}
	],
	"meshes":[
		{
			"name":"Cube",
			"primitives":[
				{
					"attributes":{
						"POSITION":0,
						"NORMAL":1,
						"TEXCOORD_0":2
					},
					"indices":3,
					"material":0
				}
			]
		},
		{
			"name":"Cylinder",
			"primitives":[
				{
					"attributes":{
						"POSITION":4,
						"NORMAL":5,
						"TEXCOORD_0":6
					},
					"indices":7,
					"material":1
				}
			]
		},
		{
			"name":"Cube.027",
			"primitives":[
				{
					"attributes":{
						"POSITION":8,
						"NORMAL":9,
						"TEXCOORD_0":10
					},
					"indices":11,
					"material":2
				}
			]
		},
		{
			"name":"Cube.001",
			"primitives":[
				{
					"attributes":{
						"POSITION":12,
						"NORMAL":13,
						"TEXCOORD_0":14
					},
					"indices":15,
					"material":3
				}
			]
		},
		{
			"name":"Cube.019",
			"primitives":[
				{
					"attributes":{
						"POSITION":16,
						"NORMAL":17,
						"TEXCOORD_0":18
					},
					"indices":19,
					"material":4
				}
			]
		},
		{
			"name":"Cube.026",
			"primitives":[
				{
					"attributes":{
						"POSITION":20,
						"NORMAL":21,
						"TEXCOORD_0":22
					},
					"indices":23,
					"material":5
				}
			]
		}
	],
	"accessors":[
		{
			"bufferView":0,
			"componentType":5126,
			"count":3264,
			"max":[
				0.16548839211463928,
				0.03252367302775383,
				0.06703103333711624
			],
			"min":[
				-0.16536112129688263,
				0.0019446872174739838,
				-0.06758726388216019
			],
			"type":"VEC3"
		},
		{
			"bufferView":1,
			"componentType":5126,
			"count":3264,
			"type":"VEC3"
		},
		{
			"bufferView":2,
			"componentType":5126,
			"count":3264,
			"type":"VEC2"
		},
		{
			"bufferView":3,
			"componentType":5123,
			"count":13338,
			"type":"SCALAR"
		},
		{
			"bufferView":4,
			"componentType":5126,
			"count":164,
			"max":[
				0.1565178781747818,
				0.042808648198843,
				-0.04065119847655296
			],
			"min":[
				0.13755519688129425,
				0.030108649283647537,
				-0.05961388722062111
			],
			"type":"VEC3"
		},
		{
			"bufferView":5,
			"componentType":5126,
			"count":164,
			"type":"VEC3"
		},
		{
			"bufferView":6,
			"componentType":5126,
			"count":164,
			"type":"VEC2"
		},
		{
			"bufferView":7,
			"componentType":5123,
			"count":474,
			"type":"SCALAR"
		},
		{
			"bufferView":8,
			"componentType":5126,
			"count":24,
			"max":[
				0.5486876964569092,
				0.11689329147338867,
				0.22286774218082428
			],
			"min":[
				-0.5486876964569092,
				0.059094008058309555,
				-0.23175890743732452
			],
			"type":"VEC3"
		},
		{
			"bufferView":9,
			"componentType":5126,
			"count":24,
			"type":"VEC3"
		},
		{
			"bufferView":10,
			"componentType":5126,
			"count":24,
			"type":"VEC2"
		},
		{
			"bufferView":11,
			"componentType":5123,
			"count":36,
			"type":"SCALAR"
		},
		{
			"bufferView":12,
			"componentType":5126,
			"count":48166,
			"max":[
				0.1288687139749527,
				0.04071251302957535,
				0.05761921405792236
			],
			"min":[
				-0.15623988211154938,
				0.02196728065609932,
				-0.05932990461587906
			],
			"type":"VEC3"
		},
		{
			"bufferView":13,
			"componentType":5126,
			"count":48166,
			"type":"VEC3"
		},
		{
			"bufferView":14,
			"componentType":5126,
			"count":48166,
			"type":"VEC2"
		},
		{
			"bufferView":15,
			"componentType":5123,
			"count":246672,
			"type":"SCALAR"
		},
		{
			"bufferView":16,
			"componentType":5126,
			"count":5064,
			"max":[
				0.15178607404232025,
				0.040712516754865646,
				0.06240396574139595
			],
			"min":[
				-0.15660975873470306,
				0.021596001461148262,
				-0.059329885989427567
			],
			"type":"VEC3"
		},
		{
			"bufferView":17,
			"componentType":5126,
			"count":5064,
			"type":"VEC3"
		},
		{
			"bufferView":18,
			"componentType":5126,
			"count":5064,
			"type":"VEC2"
		},
		{
			"bufferView":19,
			"componentType":5123,
			"count":25920,
			"type":"SCALAR"
		},
		{
			"bufferView":20,
			"componentType":5126,
			"count":16458,
			"max":[
				0.15659593045711517,
				0.04071251302957535,
				0.057550497353076935
			],
			"min":[
				-0.15612603724002838,
				0.02196728065609932,
				-0.05932990461587906
			],
			"type":"VEC3"
		},
		{
			"bufferView":21,
			"componentType":5126,
			"count":16458,
			"type":"VEC3"
		},
		{
			"bufferView":22,
			"componentType":5126,
			"count":16458,
			"type":"VEC2"
		},
		{
			"bufferView":23,
			"componentType":5123,
			"count":84240,
			"type":"SCALAR"
		}
	],
	"bufferViews":[
		{
			"buffer":0,
			"byteLength":39168,
			"byteOffset":0,
			"target":34962
		},
		{
			"buffer":0,
			"byteLength":39168,
			"byteOffset":39168,
			"target":34962
		},
		{
			"buffer":0,
			"byteLength":26112,
			"byteOffset":78336,
			"target":34962
		},
		{
			"buffer":0,
			"byteLength":26676,
			"byteOffset":104448,
			"target":34963
		},
		{
			"buffer":0,
			"byteLength":1968,
			"byteOffset":131124,
			"target":34962
		},
		{
			"buffer":0,
			"byteLength":1968,
			"byteOffset":133092,
			"target":34962
		},
		{
			"buffer":0,
			"byteLength":1312,
			"byteOffset":135060,
			"target":34962
		},
		{
			"buffer":0,
			"byteLength":948,
			"byteOffset":136372,
			"target":34963
		},
		{
			"buffer":0,
			"byteLength":288,
			"byteOffset":137320,
			"target":34962
		},
		{
			"buffer":0,
			"byteLength":288,
			"byteOffset":137608,
			"target":34962
		},
		{
			"buffer":0,
			"byteLength":192,
			"byteOffset":137896,
			"target":34962
		},
		{
			"buffer":0,
			"byteLength":72,
			"byteOffset":138088,
			"target":34963
		},
		{
			"buffer":0,
			"byteLength":577992,
			"byteOffset":138160,
			"target":34962
		},
		{
			"buffer":0,
			"byteLength":577992,
			"byteOffset":716152,
			"target":34962
		},
		{
			"buffer":0,
			"byteLength":385328,
			"byteOffset":1294144,
			"target":34962
		},
		{
			"buffer":0,
			"byteLength":493344,
			"byteOffset":1679472,
			"target":34963
		},
		{
			"buffer":0,
			"byteLength":60768,
			"byteOffset":2172816,
			"target":34962
		},
		{
			"buffer":0,
			"byteLength":60768,
			"byteOffset":2233584,
			"target":34962
		},
		{
			"buffer":0,
			"byteLength":40512,
			"byteOffset":2294352,
			"target":34962
		},
		{
			"buffer":0,
			"byteLength":51840,
			"byteOffset":2334864,
			"target":34963
		},
		{
			"buffer":0,
			"byteLength":197496,
			"byteOffset":2386704,
			"target":34962
		},
		{
			"buffer":0,
			"byteLength":197496,
			"byteOffset":2584200,
			"target":34962
		},
		{
			"buffer":0,
			"byteLength":131664,
			"byteOffset":2781696,
			"target":34962
		},
		{
			"buffer":0,
			"byteLength":168480,
			"byteOffset":2913360,
			"target":34963
		}
	],
	"buffers":[
		{
			"byteLength":3081840,
			"uri":"data:application/octet-stream;base64,"
		}
	]
}
