<svg preserveAspectRatio="none" width="100%" height="100%" overflow="visible" style="display: block;" viewBox="0 0 523 189" fill="none" xmlns="http://www.w3.org/2000/svg">
<g id="Group 1">
<g id="Vector">
<path d="M8.32501 188.55L24.525 178.65H424.125L408.375 188.55H8.32501Z" fill="var(--fill-0, white)"/>
<path d="M416.925 188.55L432.225 178.65H451.125H470.025L454.725 188.55H416.925Z" fill="var(--fill-0, white)"/>
<path d="M1.22041e-05 105.75L16.2 87.75H113.4L101.7 105.75H1.22041e-05Z" fill="var(--fill-0, white)"/>
<path d="M98.1 113.4H76.05L40.05 166.05H65.25L98.1 113.4Z" fill="var(--fill-0, white)"/>
<path d="M111.6 105.75L123.3 87.75L262 88.1804L230.5 131.83H206.849L198.382 143.08L221.782 166.48H193.799L173.056 143.08L193.799 113.4H220L226.199 106.18L111.6 105.75Z" fill="var(--fill-0, white)"/>
<path d="M236 143.08L273.5 88.1804H317L361.8 166.48H336.5L323 143.08H273.5L287.02 124.55H317L306.5 106.18H287.02L259.5 143.08L281 166.48H236V143.08Z" fill="var(--fill-0, white)"/>
<path d="M372.748 166.48L326.5 88.1804H350L398.5 166.48H372.748Z" fill="var(--fill-0, white)"/>
<path d="M427 166.48L404.5 131.83L385.5 131.4L358.2 87.75H400.95L434.5 131.4L459 87.75H485.1L445.95 166.48H427Z" fill="var(--fill-0, white)"/>
<path d="M109 113.4H182L168.5 131.4L131 131.83L109 166.48H76.05L109 113.4Z" fill="var(--fill-0, white)"/>
</g>
<g id="Vector_2">
<path d="M181.35 20.25L201 3.03984e-06H284L307.5 25.05L265.5 78.3L192.6 77.85L204.75 63.45H243L274.5 28.35V20.25H181.35Z" fill="var(--fill-0, white)"/>
<path d="M317.5 20.25L297.5 3.03984e-06H401L390.5 20.25H317.5Z" fill="var(--fill-0, white)"/>
<path d="M277.5 78.3L317.5 28.35H388L380 44.1H332.1L320.4 59.4L334.5 78.3H277.5Z" fill="var(--fill-0, white)"/>
<path d="M346.5 78.3L332.1 59.4H375.5L366 78.3H346.5Z" fill="var(--fill-0, white)"/>
<path d="M375.5 78.3L410.5 3.03984e-06H432.9L484.65 78.3H458.5L425 26.55L401 78.3H375.5Z" fill="var(--fill-0, white)"/>
<path d="M489.5 71.05L473.4 48.15L441.5 6.07967e-06L522.5 3.03984e-06L489.5 71.05Z" fill="var(--fill-0, white)"/>
<path d="M181.35 53.55V28.35H260.5L243 47.25H195.75V63.45L181.35 77.85L159.3 78.3L181.35 53.55Z" fill="var(--fill-0, white)"/>
<path d="M20.7 77.85L90 3.03984e-06H191L171 20.25H104.85L56 77.85H20.7Z" fill="var(--fill-0, white)"/>
<path d="M133.2 28.35H111.15V47.25H90L78.5 61.2H111.15L97 78.3L133.2 77.85V28.35Z" fill="var(--fill-0, white)"/>
<path d="M169.65 28.35H147.15V77.85L169.65 53.55V28.35Z" fill="var(--fill-0, white)"/>
</g>
</g>
</svg>
