<svg preserveAspectRatio="none" width="100%" height="100%" overflow="visible" style="display: block;" viewBox="0 0 528 191" fill="none" xmlns="http://www.w3.org/2000/svg">
<g id="Group 2">
<path id="Vector" d="M428.86 179.15L427.392 180.073L411.642 189.974L411.52 190.05H9.54786L11.0645 189.123L27.2647 179.224L27.3848 179.15H428.86ZM474.718 179.15L473.297 180.069L457.997 189.97L457.873 190.05H418.231L419.653 189.13L434.953 179.23L435.077 179.15H474.718ZM186 113.9L185.4 114.7L171.9 132.7L171.752 132.897L171.506 132.9L134.276 133.326L112.422 167.748L112.274 167.98H78.1514L78.625 167.217L111.575 114.137L111.722 113.9H186ZM126.302 88.25L265.002 88.6807L265.976 88.6836L265.405 89.4727L233.905 133.123L233.756 133.33H210.098L202.042 144.033L225.989 167.98H196.573L196.425 167.812L175.683 144.412L175.421 144.117L175.646 143.794L196.389 114.113L196.538 113.9H222.771L228.113 107.676L114.598 107.25L113.681 107.246L114.181 106.478L125.881 88.4775L126.029 88.249L126.302 88.25ZM320.29 88.6807L320.434 88.9316L365.234 167.232L365.662 167.98H339.211L339.067 167.73L325.712 144.58H275.517L276.096 143.786L289.616 125.255L289.767 125.05H319.138L309.209 107.681H290.271L263.147 144.046L284.368 167.142L285.139 167.98H238.5V143.926L238.587 143.799L276.087 88.8984L276.236 88.6807H320.29ZM353.278 88.6807L353.425 88.917L401.925 167.217L402.397 167.98H375.462L375.317 167.734L329.069 89.4346L328.624 88.6807H353.278ZM404.196 88.25L404.347 88.4453L437.441 131.504L462.468 88.498L462.612 88.25H488.907L488.548 88.9727L449.397 167.703L449.26 167.98H429.729L429.581 167.753L407.225 133.323L388.488 132.899L388.219 132.894L388.076 132.665L360.776 89.0146L360.298 88.25H404.196ZM102.001 113.9L101.524 114.665L68.6738 167.314L68.5274 167.55H42.1026L42.6377 166.768L78.6377 114.118L78.7861 113.9H102.001ZM117.321 88.25L116.819 89.0225L105.119 107.022L104.972 107.25H1.87697L2.62794 106.415L18.8281 88.415L18.9776 88.25H117.321Z" stroke="var(--stroke-0, #FF0000)" stroke-opacity="0.3"/>
<path id="Vector_2" d="M173.15 28.8496V54.7461L173.016 54.8897L150.516 79.1895L149.65 80.126V28.8496H173.15ZM264.644 28.8496L263.867 29.6895L246.367 48.5898L246.219 48.75H199.25V64.6572L184.561 79.3457L184.36 79.3496L162.31 79.7998L161.164 79.8232L161.927 78.9678L183.85 54.3584V28.8496H264.644ZM136.7 28.8496V79.3438L136.206 79.3496L100.007 79.7998L98.9266 79.8135L99.6151 78.9814L113.087 62.7002H80.4402L81.1141 61.8818L92.6141 47.9316L92.7645 47.75H113.65V28.8496H136.7ZM287.217 0.500003L287.365 0.658206L310.865 25.708L311.159 26.0215L310.892 26.3594L268.892 79.6094L268.741 79.8018L268.497 79.7998L195.596 79.3496L194.529 79.3438L195.218 78.5273L207.368 64.1279L207.517 63.9502H245.777L277 29.1572V21.75H183.168L183.991 20.9014L203.641 0.65137L203.789 0.500003H287.217ZM391.815 28.8496L391.446 29.5762L383.446 45.3262L383.306 45.5996H335.346L324.026 60.4033L337.901 79.001L338.497 79.7998H279.459L280.11 78.9873L320.11 29.0371L320.26 28.8496H391.815ZM379.311 59.9004L378.947 60.625L369.447 79.5244L369.308 79.7998H349.253L349.102 79.6025L334.702 60.7031L334.091 59.9004H379.311ZM436.169 0.500003L436.317 0.724612L488.067 79.0244L488.58 79.7998H462.232L462.084 79.5772L428.078 28.5693L404.454 79.5107L404.319 79.7998H377.729L378.044 79.0957L413.044 0.795901L413.176 0.500003H436.169ZM195.196 0.500003L194.355 1.35157L174.355 21.6016L174.209 21.75H108.081L59.3817 79.1738L59.2313 79.3496H22.5858L23.327 78.5176L92.6268 0.667972L92.7762 0.500003H195.196ZM526.284 0.500003L525.954 1.21094L492.954 72.2607L492.589 73.0459L492.091 72.3379L475.991 49.4375L475.983 49.4258L444.083 1.27637L443.569 0.500003H526.284ZM404.822 0.500003L404.444 1.23047L393.944 21.4805L393.804 21.75H320.291L320.144 21.6016L300.144 1.35157L299.304 0.500003H404.822Z" stroke="var(--stroke-0, #FF0000)" stroke-opacity="0.3"/>
</g>
</svg>
